<?xml version="1.0" standalone="no"?>
<!DOCTYPE svg PUBLIC "-//W3C//DTD SVG 20010904//EN"
 "http://www.w3.org/TR/2001/REC-SVG-20010904/DTD/svg10.dtd">
<svg version="1.0" xmlns="http://www.w3.org/2000/svg"
 width="260.000000pt" height="260.000000pt" viewBox="0 0 260.000000 260.000000"
 preserveAspectRatio="xMidYMid meet">
<metadata>
Created by potrace 1.11, written by Peter Selinger 2001-2013
</metadata>
<g transform="translate(0.000000,260.000000) scale(0.100000,-0.100000)"
fill="#000000" stroke="none">
<path d="M1169 2099 c-20 -4 -47 -10 -60 -13 -63 -12 -184 -65 -250 -110 -167
-112 -280 -266 -334 -451 -94 -325 17 -665 286 -879 25 -20 51 -36 57 -36 6 0
12 -4 14 -8 5 -14 127 -68 208 -93 58 -18 100 -23 190 -23 136 -1 190 6 279
35 260 87 453 290 532 560 27 93 34 276 14 370 -69 327 -314 573 -640 645 -46
10 -255 12 -296 3z"/>
</g>
</svg>
